<svg width="20" height="20" viewBox="0 0 20 20" fill="none" xmlns="http://www.w3.org/2000/svg">
<path fill-rule="evenodd" clip-rule="evenodd" d="M4.17242 3.19919C3.90421 2.9336 3.46936 2.9336 3.20116 3.19919C2.93295 3.46478 2.93295 3.89538 3.20116 4.16097L9.09792 10.0002L3.20129 15.8392C2.93308 16.1048 2.93308 16.5354 3.20129 16.801C3.4695 17.0666 3.90434 17.0666 4.17255 16.801L10.0692 10.9619L15.8276 16.6641C16.0958 16.9297 16.5306 16.9297 16.7988 16.6641C17.0671 16.3985 17.067 15.9679 16.7988 15.7023L11.0405 10.0002L16.799 4.29786C17.0672 4.03228 17.0672 3.60167 16.799 3.33608C16.5308 3.0705 16.0959 3.0705 15.8277 3.33608L10.0692 9.03838L4.17242 3.19919Z" fill="#828282"/>
</svg>
