<svg width="15" height="14" viewBox="0 0 15 14" fill="none" xmlns="http://www.w3.org/2000/svg">
<path d="M12.2664 0.410645H2.72922C1.65243 0.410645 0.832031 1.23105 0.832031 2.30783V11.845C0.832031 12.9218 1.65243 13.7422 2.72922 13.7422H12.2664C13.3432 13.7422 14.1636 12.9218 14.1636 11.845V2.30783C14.1636 1.23105 13.3432 0.410645 12.2664 0.410645ZM7.49782 11.0759C9.70266 11.0759 11.4973 9.33255 11.4973 7.23026C11.4973 6.87133 11.446 6.46113 11.3435 6.15348H12.4715V11.5887C12.4715 11.845 12.2664 12.1014 11.9588 12.1014H3.03687C2.78049 12.1014 2.52412 11.8963 2.52412 11.5887V6.1022H3.70345C3.6009 6.46113 3.54962 6.82006 3.54962 7.17899C3.49835 9.33255 5.29298 11.0759 7.49782 11.0759ZM7.49782 9.53765C6.06211 9.53765 4.93406 8.40959 4.93406 7.02516C4.93406 5.64073 6.06211 4.51267 7.49782 4.51267C8.93353 4.51267 10.0616 5.64073 10.0616 7.02516C10.0616 8.46087 8.93353 9.53765 7.49782 9.53765ZM12.4203 4.05119C12.4203 4.35884 12.1639 4.61522 11.8562 4.61522H10.4205C10.1129 4.61522 9.85649 4.35884 9.85649 4.05119V2.66676C9.85649 2.35911 10.1129 2.10273 10.4205 2.10273H11.8562C12.1639 2.10273 12.4203 2.35911 12.4203 2.66676V4.05119Z" fill="white"/>
</svg>
