<svg width="24" height="24" viewBox="0 0 24 24" fill="none" xmlns="http://www.w3.org/2000/svg">
<path d="M20 10.1818C20 16.5455 12 22 12 22C12 22 4 16.5455 4 10.1818C4 8.01187 4.84285 5.93079 6.34315 4.3964C7.84344 2.86201 9.87827 2 12 2C14.1217 2 16.1566 2.86201 17.6569 4.3964C19.1571 5.93079 20 8.01187 20 10.1818Z" stroke="white" stroke-width="1.3" stroke-linecap="round" stroke-linejoin="round"/>
<path d="M12.0002 12.9091C13.4729 12.9091 14.6668 11.6881 14.6668 10.1819C14.6668 8.67563 13.4729 7.45459 12.0002 7.45459C10.5274 7.45459 9.3335 8.67563 9.3335 10.1819C9.3335 11.6881 10.5274 12.9091 12.0002 12.9091Z" stroke="white" stroke-width="1.3" stroke-linecap="round" stroke-linejoin="round"/>
</svg>
