<svg width="46" height="46" viewBox="0 0 46 46" fill="none" xmlns="http://www.w3.org/2000/svg">
<g clip-path="url(#clip0_67_5394)">
<path d="M41.9513 0C42.8378 0.203646 43.6643 0.503125 44.3591 1.11406C46.5273 3.01875 46.5393 6.21719 44.3711 8.19375C41.9154 10.4219 39.4596 12.626 36.9919 14.8302C36.8362 14.974 36.6924 15.1057 36.5128 15.2734C36.6924 15.4651 36.8362 15.6208 36.9919 15.7766C37.8185 16.7229 37.7706 18.1245 36.9081 18.987C36.0216 19.8615 34.644 19.8974 33.7096 19.0349C33.3143 18.6755 32.9789 18.2443 32.6435 17.8969C31.0263 19.5021 29.493 21.0474 27.8758 22.6526C28.6904 23.4432 29.5648 24.2698 30.4034 25.1083C33.3862 28.0911 36.357 31.0859 39.3398 34.0807C39.8789 34.6318 40.0107 35.1708 39.7232 35.7339C39.5195 36.1411 39.1721 36.3448 38.7409 36.4526C36.2612 37.0635 33.8414 36.776 31.4815 35.8776C28.6544 34.7995 26.3424 32.9786 24.2221 30.8703C23.4555 30.1036 22.6648 29.337 21.8622 28.5344C21.7424 28.6422 21.6227 28.762 21.4909 28.8818C16.9388 33.4339 12.3747 37.974 7.83464 42.538C6.8763 43.4964 5.82214 44.263 4.58828 44.826C3.97734 45.1016 3.39036 45.425 2.77943 45.7245C1.59349 46.2995 0.539323 45.8802 0.0601563 44.6464C0.0481771 44.6104 0.0122396 44.5745 -0.0117188 44.5385C-0.0117188 44.275 -0.0117188 43.9995 -0.0117188 43.724C0.383594 42.9214 0.790886 42.1307 1.16224 41.3161C1.73724 40.0823 2.53984 39.0161 3.49818 38.0578C8.03828 33.5417 12.5544 29.0016 17.0945 24.4734C17.2143 24.3536 17.394 24.2818 17.5617 24.174C17.3341 23.9344 17.2383 23.8266 17.1425 23.7188C16.3279 22.9042 15.5133 22.0896 14.7107 21.263C13.7523 20.2807 13.7523 18.9271 14.6987 17.9208C14.8664 17.7411 15.0701 17.5974 15.1898 17.4057C15.3096 17.2021 15.4654 16.8906 15.3815 16.7229C15.118 16.124 14.6867 15.6328 14.0398 15.3812C13.2133 15.0458 12.3268 14.8062 11.5721 14.351C9.12839 12.8776 7.46328 10.6974 6.26536 8.13385C5.95391 7.46302 5.47474 6.82812 5.03151 6.16927C4.82786 5.86979 4.50443 5.77396 4.15703 5.85781C3.80964 5.94167 3.64193 6.20521 3.60599 6.54062C3.54609 7.01979 3.30651 7.35521 2.8513 7.49896C2.38411 7.64271 2.02474 7.45104 1.67734 7.13958C0.850781 6.3849 0.239844 5.51042 0.000260417 4.40833C0.000260417 4.04896 0.000260417 3.68958 0.000260417 3.33021C0.0361979 3.2224 0.0721354 3.1026 0.0960938 2.99479C0.44349 1.68906 1.22214 0.754687 2.47995 0.263542C2.75547 0.155729 3.04297 0.0838542 3.33047 0C3.68984 0 4.04922 0 4.40859 0C5.63047 0.251562 6.49297 1.05417 7.34349 1.91667C12.5784 7.19948 17.8253 12.4703 23.0721 17.7411C23.1919 17.8729 23.2758 18.0406 23.3477 18.1484C24.9768 16.5312 26.5102 15.0099 28.1273 13.4047C27.768 13.0693 27.3727 12.7458 27.0253 12.3865C26.1029 11.4281 26.0909 10.0146 26.9773 9.11615C27.8518 8.22969 29.3013 8.20573 30.2716 9.06823C30.4154 9.2 30.5471 9.33177 30.7388 9.49948C30.8346 9.37969 30.9185 9.27187 31.0143 9.17604C33.2425 6.69635 35.4586 4.19271 37.7227 1.74896C38.2138 1.2099 38.8607 0.790625 39.4836 0.407292C39.831 0.191667 40.2982 0.131771 40.7055 0C41.1128 0 41.544 0 41.9513 0ZM38.118 35.0391C31.7211 28.6062 25.3721 22.2214 19.0352 15.8604C17.981 16.8906 16.9628 17.8969 15.9445 18.9151C15.3815 19.4781 15.3815 19.8135 15.9565 20.4005C18.2086 22.6646 20.4487 24.9286 22.7008 27.1807C24.1263 28.5943 25.5159 30.0437 27.0133 31.3734C29.2294 33.338 31.7451 34.7755 34.7398 35.1828C35.8419 35.3266 36.944 35.3146 38.118 35.0391ZM35.4586 14.1714C38.1419 11.7516 40.8253 9.34375 43.4966 6.92396C44.1195 6.36094 44.431 5.61823 44.4669 4.76771C44.5148 3.47396 43.7482 2.28802 42.5622 1.7849C41.3284 1.26979 39.9628 1.55729 39.0284 2.56354C37.9622 3.72552 36.9201 4.89948 35.8779 6.06146C34.5242 7.55885 33.1826 9.05625 31.8529 10.5297C33.0628 11.7396 34.2487 12.9375 35.4586 14.1714ZM18.6159 25.1802C18.4841 25.3 18.4242 25.3479 18.3763 25.4078C13.6445 30.1396 8.91276 34.8714 4.19297 39.6151C3.76172 40.0464 3.37839 40.5375 3.07891 41.0646C2.55182 41.987 2.09661 42.9453 1.64141 43.9036C1.58151 44.0354 1.59349 44.263 1.66536 44.3708C1.71328 44.4427 1.97682 44.4307 2.09661 44.3708C2.58776 44.1552 3.05495 43.8917 3.54609 43.6641C4.72005 43.113 5.79818 42.4542 6.72057 41.5198C11.2607 36.9437 15.8367 32.3917 20.4008 27.8276C20.5206 27.7078 20.7003 27.6359 20.9159 27.4922C20.3289 26.9292 19.8737 26.4979 19.4305 26.0547C19.1669 25.7792 18.9154 25.4917 18.6159 25.1802ZM2.30026 5.54635C3.33047 3.7974 5.4388 3.98906 6.40911 5.41458C6.85234 6.07344 7.30755 6.73229 7.63099 7.43906C8.39766 9.10417 9.40391 10.5896 10.7216 11.8714C11.6799 12.8057 12.806 13.4766 14.0997 13.8359C14.2315 13.8719 14.4352 13.8599 14.531 13.788C14.9622 13.4167 15.3576 13.0214 15.7888 12.6141C15.681 12.4823 15.6211 12.4224 15.5612 12.3505C12.231 9.00833 8.91276 5.66615 5.58255 2.32396C5.48672 2.22812 5.39089 2.13229 5.28307 2.06042C4.31276 1.30573 2.9112 1.42552 2.12057 2.33594C1.28203 3.27031 1.35391 4.63594 2.30026 5.54635ZM29.2534 14.6984C27.7081 16.2318 26.1747 17.7651 24.7013 19.2266C25.3961 19.9094 26.1268 20.6281 26.7857 21.275C28.2591 19.8016 29.7925 18.2682 31.2898 16.7708C30.631 16.088 29.9122 15.3693 29.2534 14.6984ZM36.1773 17.3578C35.9737 17.0703 35.8419 16.8068 35.6383 16.6031C33.5659 14.5188 31.4935 12.4464 29.4091 10.3859C29.3013 10.2781 29.2055 10.1224 29.0737 10.0984C28.8102 10.0505 28.4867 9.97865 28.2711 10.0865C28.0794 10.1823 27.8638 10.5057 27.8758 10.7094C27.8878 10.9729 28.0674 11.2724 28.2711 11.4641C30.3315 13.5484 32.4159 15.6208 34.4883 17.6932C34.6081 17.813 34.7159 17.9807 34.8596 18.0047C35.1232 18.0526 35.4346 18.1005 35.6622 18.0047C35.8659 17.9089 35.9857 17.6214 36.1773 17.3578ZM16.9148 13.7401C16.5195 14.0875 16.1482 14.4109 15.7888 14.7344C16.1242 15.1297 16.4477 15.501 16.6992 15.7885C17.0706 15.4292 17.4659 15.0578 17.8852 14.6625C17.6456 14.4349 17.382 14.1833 17.1305 13.9437C17.0346 13.8479 16.9508 13.7641 16.9148 13.7401Z" fill="#FF0000"/>
<path d="M18.4121 36.7281C18.448 36.6323 18.484 36.4766 18.5559 36.3328C19.023 35.3984 19.4783 34.4641 19.9574 33.5297C20.221 33.0146 20.6283 32.8469 21.0475 33.0625C21.4668 33.2781 21.5746 33.7094 21.323 34.2125C20.8439 35.1708 20.3647 36.1292 19.8855 37.0995C19.6939 37.4828 19.3824 37.6505 18.9632 37.5427C18.6158 37.4229 18.4241 37.1594 18.4121 36.7281Z" fill="#FF0000"/>
<path d="M23.7788 36.0332C23.7788 35.5421 23.7668 35.0509 23.7788 34.5478C23.7907 34.0567 24.0782 33.7572 24.4975 33.7332C24.9407 33.7093 25.2881 34.0207 25.3001 34.5119C25.3241 35.5181 25.3241 36.5124 25.3001 37.5186C25.2881 38.0098 24.9407 38.3332 24.5095 38.3212C24.0902 38.3092 23.8027 37.9858 23.7788 37.5066C23.7668 37.0275 23.7788 36.5363 23.7788 36.0332Z" fill="#FF0000"/>
<path d="M16.9149 13.74C16.9388 13.7639 17.0347 13.8478 17.1185 13.9317C17.3821 14.1832 17.6336 14.4228 17.8732 14.6504C17.4539 15.0577 17.0586 15.4291 16.6873 15.7764C16.4357 15.4889 16.1243 15.1176 15.7769 14.7223C16.1482 14.4108 16.5196 14.0874 16.9149 13.74Z" fill="#FF0000"/>
<path d="M13.8003 25.4556C13.7045 25.5754 13.5608 25.8629 13.3332 25.9827C12.3509 26.5098 11.3446 27.0009 10.3384 27.4921C9.9191 27.6957 9.48785 27.552 9.29618 27.1806C9.09253 26.7973 9.23628 26.3541 9.66753 26.1265C10.6618 25.6114 11.6561 25.1082 12.6623 24.6291C13.2134 24.3655 13.7884 24.7129 13.8003 25.4556Z" fill="#FF0000"/>
<path d="M10.7217 22.2334C10.2425 22.2334 9.76335 22.2454 9.28419 22.2334C8.76908 22.2214 8.45763 21.9339 8.44565 21.4907C8.43367 21.0475 8.74512 20.724 9.24825 20.7121C10.2305 20.6881 11.2248 20.6881 12.2071 20.7121C12.7102 20.724 13.0217 21.0475 13.0217 21.4787C13.0217 21.922 12.7102 22.2214 12.1951 22.2334C11.704 22.2454 11.2128 22.2334 10.7217 22.2334Z" fill="#FF0000"/>
</g>
<defs>
<clipPath id="clip0_67_5394">
<rect width="46" height="46" fill="white"/>
</clipPath>
</defs>
</svg>
