<svg width="15" height="12" viewBox="0 0 15 12" fill="none" xmlns="http://www.w3.org/2000/svg">
<path d="M14.1506 4.83193C14.1506 4.52775 14.0999 4.17288 14.0999 3.76731C14.0492 3.36174 13.9985 2.95616 13.9478 2.60129C13.8464 2.19572 13.6943 1.89154 13.3901 1.63806C13.1367 1.38458 12.7818 1.23248 12.4269 1.18179C11.2609 1.0297 9.53722 0.979004 7.20518 0.979004C4.87315 0.979004 3.09876 1.0297 1.98344 1.18179C1.62857 1.23248 1.27369 1.38458 1.02021 1.63806C0.76673 1.89154 0.563941 2.19572 0.462548 2.60129C0.361155 2.95616 0.310465 3.31104 0.310465 3.76731C0.259769 4.17288 0.259766 4.52775 0.259766 4.83193C0.259766 5.13611 0.259766 5.49098 0.259766 5.99795C0.259766 6.50491 0.259766 6.91049 0.259766 7.16397C0.259766 7.46815 0.310465 7.82303 0.310465 8.2286C0.361162 8.63417 0.411852 9.03973 0.462548 9.39461C0.563941 9.80018 0.716034 10.1044 1.02021 10.3578C1.27369 10.6113 1.62857 10.7634 1.98344 10.8141C3.14946 10.9662 4.87315 11.0169 7.20518 11.0169C9.53722 11.0169 11.3116 10.9662 12.4269 10.8141C12.7818 10.7634 13.1367 10.6113 13.3901 10.3578C13.6436 10.1044 13.8464 9.80018 13.9478 9.39461C14.0492 9.03973 14.0999 8.68486 14.0999 8.2286C14.1506 7.82303 14.1506 7.46815 14.1506 7.16397C14.1506 6.85979 14.1506 6.50491 14.1506 5.99795C14.1506 5.49098 14.1506 5.08541 14.1506 4.83193ZM9.89209 6.40352L5.88707 8.88764C5.83638 8.93834 5.73498 8.98904 5.63359 8.98904C5.5322 8.98904 5.4815 8.98904 5.38011 8.93834C5.22802 8.83695 5.12663 8.68486 5.12663 8.48208V3.46313C5.12663 3.26034 5.22802 3.10825 5.38011 3.00686C5.5322 2.90547 5.73498 2.90547 5.88707 3.00686L9.89209 5.49098C10.0442 5.59238 10.1456 5.74447 10.1456 5.89656C10.1456 6.04865 10.0442 6.30213 9.89209 6.40352Z" fill="white"/>
</svg>
